<?xml version="1.0" standalone="no"?>
<!DOCTYPE svg PUBLIC "-//W3C//DTD SVG 20010904//EN"
 "http://www.w3.org/TR/2001/REC-SVG-20010904/DTD/svg10.dtd">
<svg version="1.0" xmlns="http://www.w3.org/2000/svg"
 width="600.000000pt" height="371.000000pt" viewBox="0 0 600.000000 371.000000"
 preserveAspectRatio="xMidYMid meet">
<metadata>
Created by potrace 1.15, written by Peter Selinger 2001-2017
</metadata>
<g transform="translate(0.000000,371.000000) scale(0.100000,-0.100000)"
fill="#000000" stroke="none">
<path d="M2660 3704 c-19 -2 -87 -9 -150 -15 -63 -5 -198 -24 -299 -40 -606
-99 -1142 -314 -1551 -622 -121 -91 -328 -298 -403 -404 -174 -245 -257 -493
-257 -768 0 -220 40 -379 146 -585 137 -263 398 -529 714 -725 440 -273 958
-440 1610 -522 119 -15 217 -18 540 -18 348 1 415 3 561 23 733 97 1306 309
1767 654 123 92 308 276 394 392 179 240 268 500 268 781 0 220 -40 379 -147
586 -135 262 -397 528 -713 724 -431 267 -939 435 -1563 516 -134 18 -225 22
-522 24 -198 2 -376 1 -395 -1z"/>
</g>
</svg>
